# Blender 4.2.1 LTS
# www.blender.org
mtllib QuestionMark.mtl
o Cube
v 0.666667 1.463128 -1.659561
v 0.500000 -1.489506 -0.698179
v 0.666667 1.461918 0.398685
v 0.500000 -1.489506 0.526237
v -0.666667 1.463128 -1.659561
v -0.500000 -1.489506 -0.698179
v -0.666667 1.461918 0.398685
v -0.500000 -1.489506 0.526237
v 0.666667 4.009398 -0.993353
v -0.666667 4.009398 -0.993353
v 0.666667 4.057291 -3.117861
v -0.666667 4.057291 -3.117862
v 0.666667 6.161168 -1.143377
v -0.666667 6.161168 -1.143377
v 0.666667 6.646293 -3.037835
v -0.666667 6.646293 -3.037835
v 0.666667 7.390705 -0.092727
v -0.666667 7.390706 -0.092727
v 0.666667 8.994100 -0.739592
v -0.666667 8.994101 -0.739593
v 0.666667 7.217105 1.982666
v -0.666667 7.217105 1.982666
v 0.666667 8.945877 2.873608
v -0.666667 8.945877 2.873608
v 0.500000 5.987950 3.588995
v -0.500000 5.987950 3.588995
v 0.500000 6.947214 4.844452
v -0.500000 6.947214 4.844452
v -0.784886 -4.168092 -0.909276
v -0.784886 -4.168092 0.660497
v 0.784887 -4.168092 -0.909276
v 0.784886 -4.168092 0.660497
v -0.784886 -5.564001 -0.909276
v -0.784886 -5.564001 0.660497
v 0.784887 -5.564001 -0.909276
v 0.784887 -5.564001 0.660497
v -0.609568 -1.733667 -0.067132
v 0.000000 -1.733667 -0.790466
v 0.638117 -0.283060 -1.085182
v -0.638117 -0.283211 0.647901
v 0.638117 -0.283211 0.647901
v -0.638117 -0.283060 -1.085182
v 0.000000 1.461691 0.784606
v 0.916667 1.462523 -0.630438
v -0.000000 -1.733667 0.656203
v -0.916667 1.462523 -0.630438
v 0.000000 1.463355 -2.045482
v 0.609568 -1.733667 -0.067132
v 0.000000 4.000418 -0.595008
v 0.916667 4.033344 -2.055608
v -0.916667 4.033344 -2.055608
v 0.000000 4.066271 -3.516207
v -0.666667 2.864898 -0.295359
v -0.666667 2.873759 -2.439385
v 0.666667 2.873759 -2.439385
v 0.666667 2.864898 -0.295359
v 0.000000 6.070207 -0.788167
v 0.916667 6.403731 -2.090606
v -0.916667 6.403731 -2.090606
v 0.000000 6.737255 -3.393046
v -0.666667 5.139329 -1.260348
v -0.666667 5.305546 -3.352565
v 0.666667 5.139328 -1.260348
v 0.666667 5.305547 -3.352566
v 0.000000 7.090069 0.028561
v 0.916667 8.192403 -0.416160
v -0.916667 8.192403 -0.416160
v 0.000000 9.294737 -0.860880
v -0.666667 7.984012 -2.147874
v 0.666667 7.984012 -2.147874
v 0.666667 6.924741 -0.768105
v -0.666667 6.924740 -0.768105
v 0.000000 6.892961 1.815614
v 0.916667 8.081491 2.428137
v -0.916667 8.081491 2.428137
v 0.000000 9.270021 3.040660
v -0.666667 7.526659 0.902633
v -0.666667 9.349932 1.053426
v 0.666667 7.526659 0.902633
v 0.666667 9.349933 1.053426
v 0.000000 5.754233 3.541734
v 0.609568 6.315799 4.332742
v -0.609568 6.315800 4.332741
v 0.000000 6.877365 5.123749
v -0.638117 7.889074 4.281985
v 0.638117 7.889075 4.281985
v 0.638117 6.490667 2.908526
v -0.638117 6.490667 2.908526
v -0.956883 -4.015146 -0.124390
v 0.000000 -4.015145 -1.081273
v -0.000000 -4.015146 0.832493
v 0.956883 -4.015146 -0.124390
v -0.956883 -5.716948 -0.124390
v -0.000000 -5.716948 -1.081273
v 0.000000 -5.716949 0.832493
v 0.956883 -5.716948 -0.124390
v 0.956883 -4.866047 0.832493
v 0.956883 -4.866047 -1.081273
v -0.956883 -4.866047 -1.081273
v -0.956883 -4.866047 0.832493
v -0.916667 2.869328 -1.367372
v 0.000000 -0.307311 0.970614
v -0.878087 -0.307207 -0.216783
v 0.878087 -0.307207 -0.216783
v 0.000000 -0.307103 -1.404180
v -0.916667 5.222438 -2.306457
v 0.916667 2.869329 -1.367372
v 0.000000 2.875421 -2.841390
v 0.000000 2.863236 0.106646
v 0.000000 8.182625 -2.406580
v 0.000000 5.108163 -0.868057
v 0.000000 5.336712 -3.744856
v 0.916667 5.222438 -2.306457
v -0.916667 8.438294 0.978029
v 0.916667 7.454376 -1.457989
v -0.916667 7.454376 -1.457989
v 0.000000 6.726127 -0.509398
v -0.000000 8.132004 4.557294
v 0.000000 7.184794 0.874359
v 0.000000 9.691794 1.081699
v 0.916667 8.438294 0.978029
v 0.878086 7.174906 3.606694
v -0.878086 7.174906 3.606694
v 0.000000 6.217807 2.656094
v 1.317834 -4.866047 -0.124390
v 0.000000 -2.246060 -0.027596
v -0.000000 -3.694172 -0.124390
v 0.000000 -6.037921 -0.124390
v 0.000000 -4.866047 -1.442224
v -0.000000 -4.866047 1.193444
v -1.317834 -4.866047 -0.124390
v -0.000000 5.997270 4.576217
vn -0.9653 -0.1238 -0.2300
vn -0.9661 0.1172 0.2302
vn -0.9641 0.1367 0.2277
vn -0.9646 -0.1326 -0.2278
vn 0.3986 -0.1702 0.9012
vn 0.4731 0.1045 0.8748
vn -0.4731 0.1045 0.8748
vn -0.3986 -0.1702 0.9012
vn -0.9558 -0.1449 0.2558
vn -0.9678 0.0287 0.2500
vn -0.9641 -0.0887 -0.2501
vn -0.9461 -0.1983 -0.2560
vn 0.9461 -0.1983 -0.2560
vn 0.9641 -0.0887 -0.2501
vn 0.9678 0.0287 0.2500
vn 0.9558 -0.1449 0.2558
vn -0.3898 -0.3450 -0.8538
vn -0.4585 -0.2937 -0.8388
vn 0.4585 -0.2937 -0.8388
vn 0.3898 -0.3450 -0.8538
vn -0.9714 -0.0464 -0.2327
vn -0.9711 0.0520 0.2329
vn -0.9707 -0.0359 0.2376
vn -0.9706 0.0495 -0.2354
vn 0.9661 0.1172 0.2302
vn 0.9653 -0.1238 -0.2300
vn 0.9646 -0.1326 -0.2278
vn 0.9641 0.1367 0.2277
vn 0.4581 -0.4333 -0.7762
vn -0.4581 -0.4333 -0.7762
vn -0.4596 -0.4398 -0.7716
vn 0.4596 -0.4398 -0.7716
vn -0.4684 0.3882 0.7936
vn 0.4684 0.3882 0.7936
vn 0.4526 0.4663 0.7601
vn -0.4526 0.4663 0.7601
vn 0.4495 0.4994 -0.7407
vn -0.4495 0.4994 -0.7407
vn -0.4256 0.7349 -0.5280
vn 0.4256 0.7349 -0.5280
vn -0.4948 0.2039 0.8448
vn 0.4948 0.2039 0.8448
vn 0.4932 -0.0859 0.8657
vn -0.4932 -0.0859 0.8657
vn 0.5003 -0.1567 -0.8516
vn -0.5003 -0.1567 -0.8516
vn -0.4928 0.2056 -0.8455
vn 0.4928 0.2056 -0.8455
vn 0.9711 0.0520 0.2329
vn 0.9714 -0.0464 -0.2327
vn 0.9706 0.0495 -0.2354
vn 0.9707 -0.0359 0.2376
vn -0.9607 0.2729 -0.0515
vn -0.9607 -0.2740 0.0438
vn -0.9654 -0.2523 -0.0664
vn -0.9653 0.2544 0.0592
vn 0.9638 -0.1296 0.2332
vn 0.9633 0.1442 -0.2262
vn 0.9581 0.2332 -0.1664
vn 0.9581 -0.2346 0.1645
vn -0.9633 0.1442 -0.2262
vn -0.9638 -0.1296 0.2332
vn -0.9581 -0.2346 0.1645
vn -0.9581 0.2332 -0.1664
vn -0.4537 -0.3729 0.8094
vn 0.4537 -0.3729 0.8094
vn 0.4253 -0.7470 0.5109
vn -0.4253 -0.7470 0.5109
vn 0.4827 0.6982 0.5286
vn -0.4827 0.6982 0.5286
vn -0.4509 0.3854 0.8051
vn 0.4509 0.3854 0.8051
vn -0.4377 -0.8921 0.1118
vn 0.4377 -0.8921 0.1118
vn 0.4617 -0.8502 -0.2530
vn -0.4617 -0.8502 -0.2530
vn 0.4372 0.8816 -0.1777
vn -0.4372 0.8816 -0.1777
vn -0.4608 0.8670 0.1895
vn 0.4608 0.8670 0.1895
vn 0.9607 -0.2740 0.0438
vn 0.9607 0.2729 -0.0515
vn 0.9653 0.2544 0.0592
vn 0.9654 -0.2523 -0.0664
vn 0.9689 -0.2094 -0.1316
vn 0.9691 0.1839 0.1647
vn 0.9568 -0.0080 0.2908
vn 0.9528 -0.3032 -0.0181
vn -0.9691 0.1839 0.1647
vn -0.9689 -0.2094 -0.1316
vn -0.9528 -0.3032 -0.0181
vn -0.9568 -0.0080 0.2908
vn -0.4876 -0.6877 -0.5378
vn 0.4876 -0.6877 -0.5378
vn 0.4593 -0.7735 -0.4367
vn -0.4593 -0.7735 -0.4367
vn 0.8905 0.3400 -0.3023
vn 0.8905 0.3400 0.3023
vn 0.8905 -0.3400 0.3023
vn 0.8905 -0.3400 -0.3023
vn -0.5204 -0.7327 -0.4386
vn 0.5204 -0.7327 -0.4386
vn 0.5469 -0.6989 0.4609
vn -0.5469 -0.6989 0.4609
vn -0.2777 0.9197 -0.2777
vn -0.2777 0.9197 0.2777
vn 0.2777 0.9197 0.2777
vn 0.2777 0.9197 -0.2777
vn -0.2777 -0.9197 -0.2777
vn 0.2777 -0.9197 -0.2777
vn 0.2777 -0.9197 0.2777
vn -0.2777 -0.9197 0.2777
vn -0.3023 0.3400 -0.8905
vn 0.3023 0.3400 -0.8905
vn 0.3023 -0.3400 -0.8905
vn -0.3023 -0.3400 -0.8905
vn 0.3023 0.3400 0.8905
vn -0.3023 0.3400 0.8905
vn -0.3023 -0.3400 0.8905
vn 0.3023 -0.3400 0.8905
vn -0.8905 0.3400 0.3023
vn -0.8905 0.3400 -0.3023
vn -0.8905 -0.3400 -0.3023
vn -0.8905 -0.3400 0.3023
vn 0.4664 -0.8502 0.2442
vn 0.5055 -0.4703 0.7234
vn -0.5055 -0.4703 0.7234
vn -0.4664 -0.8502 0.2442
vt 0.583333 0.250000
vt 0.586806 0.125000
vt 0.620660 0.125000
vt 0.619792 0.250000
vt 0.625000 0.000000
vt 0.625000 0.000000
vt 0.625000 0.125000
vt 0.625000 0.250000
vt 0.437500 0.729167
vt 0.502701 0.746721
vt 0.500675 0.867670
vt 0.416763 0.804012
vt 0.583333 0.750000
vt 0.586806 0.875000
vt 0.625000 1.000000
vt 0.500000 1.000000
vt 0.375000 1.000000
vt 0.375000 0.000000
vt 0.500000 0.000000
vt 0.495660 0.125000
vt 0.375000 0.125000
vt 0.586806 0.125000
vt 0.495660 0.251736
vt 0.375000 0.250000
vt 0.437500 0.520833
vt 0.502701 0.503279
vt 0.501350 0.625000
vt 0.423804 0.625000
vt 0.583333 0.500000
vt 0.583333 0.625000
vt 0.499807 0.382330
vt 0.416763 0.445988
vt 0.583333 0.375000
vt 0.583333 0.750000
vt 0.583333 0.625000
vt 0.619792 0.625000
vt 0.619792 0.750000
vt 0.583333 0.500000
vt 0.619792 0.500000
vt 0.625000 0.500000
vt 0.625000 0.625000
vt 0.625000 0.750000
vt 0.583333 0.375000
vt 0.619792 0.375000
vt 0.619792 0.250000
vt 0.625000 0.375000
vt 0.586806 0.875000
vt 0.620660 0.875000
vt 0.625000 1.000000
vt 0.583333 0.750000
vt 0.619792 0.750000
vt 0.625000 0.750000
vt 0.625000 0.875000
vt 0.625000 0.375000
vt 0.625000 0.500000
vt 0.625000 0.250000
vt 0.625000 0.625000
vt 0.625000 0.750000
vt 0.625000 0.500000
vt 0.625000 0.375000
vt 0.625000 0.375000
vt 0.625000 0.496721
vt 0.625000 0.253279
vt 0.625000 0.270833
vt 0.625000 0.479167
vt 0.625000 0.617670
vt 0.625000 0.748264
vt 0.625000 0.554012
vt 0.625000 0.750000
vt 0.625000 0.132330
vt 0.625000 0.195988
vt 0.375000 0.520833
vt 0.375000 0.625000
vt 0.371528 0.625000
vt 0.374132 0.503279
vt 0.375000 0.729167
vt 0.374132 0.746721
vt 0.375000 0.750000
vt 0.340278 0.625000
vt 0.375000 0.500000
vt 0.388503 0.625000
vt 0.375000 0.625000
vt 0.416763 0.804013
vt 0.375000 0.625000
vt 0.375000 0.445988
vt 0.375000 0.804012
vt 0.125000 0.500000
vt 0.250000 0.500000
vt 0.246528 0.625000
vt 0.125000 0.625000
vt 0.250000 0.750000
vt 0.125000 0.750000
vt 0.375000 0.382330
vt 0.375000 0.251736
vt 0.375000 0.375000
vt 0.375000 0.804012
vt 0.375000 0.867670
vt 0.375000 1.000000
vt 0.375000 1.000000
vt 0.375000 0.875000
vt 0.375000 0.000000
vt 0.625000 0.375000
vt 0.625000 0.195988
s 0
usemtl Material
f 5/1/1 46/2/1 101/3/1 54/4/1
f 46/2/2 7/5/2 53/6/2 101/3/2
f 101/3/3 53/6/3 10/5/3 51/7/3
f 54/4/4 101/3/4 51/7/4 12/8/4
f 4/9/5 41/10/5 102/11/5 45/12/5
f 41/10/6 3/13/6 43/14/6 102/11/6
f 102/11/7 43/14/7 7/15/7 40/16/7
f 45/12/8 102/11/8 40/16/8 8/17/8
f 8/18/9 40/19/9 103/20/9 37/21/9
f 40/19/10 7/5/10 46/22/10 103/20/10
f 103/20/11 46/22/11 5/1/11 42/23/11
f 37/21/12 103/20/12 42/23/12 6/24/12
f 2/25/13 39/26/13 104/27/13 48/28/13
f 39/26/14 1/29/14 44/30/14 104/27/14
f 104/27/15 44/30/15 3/13/15 41/10/15
f 48/28/16 104/27/16 41/10/16 4/9/16
f 6/24/17 42/23/17 105/31/17 38/32/17
f 42/23/18 5/1/18 47/33/18 105/31/18
f 105/31/19 47/33/19 1/29/19 39/26/19
f 38/32/20 105/31/20 39/26/20 2/25/20
f 12/8/21 51/7/21 106/7/21 62/8/21
f 51/7/22 10/5/22 61/6/22 106/7/22
f 106/7/23 61/6/23 14/5/23 59/7/23
f 62/8/24 106/7/24 59/7/24 16/8/24
f 3/34/25 44/35/25 107/36/25 56/37/25
f 44/35/26 1/38/26 55/39/26 107/36/26
f 107/36/27 55/39/27 11/40/27 50/41/27
f 56/37/28 107/36/28 50/41/28 9/42/28
f 1/38/29 47/43/29 108/44/29 55/39/29
f 47/43/30 5/1/30 54/45/30 108/44/30
f 108/44/31 54/45/31 12/8/31 52/46/31
f 55/39/32 108/44/32 52/46/32 11/40/32
f 7/15/33 43/47/33 109/48/33 53/49/33
f 43/47/34 3/50/34 56/51/34 109/48/34
f 109/48/35 56/51/35 9/52/35 49/53/35
f 53/49/36 109/48/36 49/53/36 10/15/36
f 15/40/37 60/46/37 110/54/37 70/55/37
f 60/46/38 16/8/38 69/56/38 110/54/38
f 110/54/39 69/56/39 20/8/39 68/46/39
f 70/55/40 110/54/40 68/46/40 19/40/40
f 10/15/41 49/53/41 111/53/41 61/49/41
f 49/53/42 9/52/42 63/52/42 111/53/42
f 111/53/43 63/52/43 13/52/43 57/53/43
f 61/49/44 111/53/44 57/53/44 14/15/44
f 11/40/45 52/46/45 112/54/45 64/55/45
f 52/46/46 12/8/46 62/56/46 112/54/46
f 112/54/47 62/56/47 16/8/47 60/46/47
f 64/55/48 112/54/48 60/46/48 15/40/48
f 9/42/49 50/41/49 113/57/49 63/58/49
f 50/41/50 11/40/50 64/55/50 113/57/50
f 113/57/51 64/55/51 15/40/51 58/41/51
f 63/58/52 113/57/52 58/41/52 13/42/52
f 20/8/53 67/7/53 114/7/53 78/8/53
f 67/7/54 18/5/54 77/6/54 114/7/54
f 114/7/55 77/6/55 22/5/55 75/7/55
f 78/8/56 114/7/56 75/7/56 24/8/56
f 13/42/57 58/41/57 115/57/57 71/58/57
f 58/41/58 15/40/58 70/55/58 115/57/58
f 115/57/59 70/55/59 19/40/59 66/41/59
f 71/58/60 115/57/60 66/41/60 17/42/60
f 16/8/61 59/7/61 116/7/61 69/8/61
f 59/7/62 14/5/62 72/6/62 116/7/62
f 116/7/63 72/6/63 18/5/63 67/7/63
f 69/8/64 116/7/64 67/7/64 20/8/64
f 14/15/65 57/53/65 117/53/65 72/49/65
f 57/53/66 13/52/66 71/52/66 117/53/66
f 117/53/67 71/52/67 17/52/67 65/53/67
f 72/49/68 117/53/68 65/53/68 18/15/68
f 23/59/69 76/60/69 118/61/69 86/62/69
f 76/60/70 24/8/70 85/63/70 118/61/70
f 118/61/71 85/63/71 28/64/71 84/61/71
f 86/62/72 118/61/72 84/61/72 27/65/72
f 18/15/73 65/53/73 119/53/73 77/49/73
f 65/53/74 17/52/74 79/52/74 119/53/74
f 119/53/75 79/52/75 21/52/75 73/53/75
f 77/49/76 119/53/76 73/53/76 22/15/76
f 19/40/77 68/46/77 120/54/77 80/55/77
f 68/46/78 20/8/78 78/56/78 120/54/78
f 120/54/79 78/56/79 24/8/79 76/46/79
f 80/55/80 120/54/80 76/46/80 23/40/80
f 17/42/81 66/41/81 121/57/81 79/58/81
f 66/41/82 19/40/82 80/55/82 121/57/82
f 121/57/83 80/55/83 23/40/83 74/41/83
f 79/58/84 121/57/84 74/41/84 21/42/84
f 21/52/85 74/41/85 122/66/85 87/67/85
f 74/41/86 23/59/86 86/62/86 122/66/86
f 122/66/87 86/62/87 27/65/87 82/68/87
f 87/67/88 122/66/88 82/68/88 25/69/88
f 24/8/89 75/7/89 123/70/89 85/63/89
f 75/7/90 22/5/90 88/6/90 123/70/90
f 123/70/91 88/6/91 26/5/91 83/71/91
f 85/63/92 123/70/92 83/71/92 28/64/92
f 22/15/93 73/53/93 124/53/93 88/49/93
f 73/53/94 21/52/94 87/67/94 124/53/94
f 124/53/95 87/67/95 25/69/95 81/53/95
f 88/49/96 124/53/96 81/53/96 26/49/96
f 31/72/97 92/73/97 125/74/97 98/75/97
f 92/73/98 32/76/98 97/77/98 125/74/98
f 125/74/99 97/77/99 36/78/99 96/79/99
f 98/75/100 125/74/100 96/79/100 35/80/100
f 6/24/101 38/32/101 126/81/101 37/82/101
f 38/32/102 2/25/102 48/28/102 126/81/102
f 126/81/103 48/28/103 4/9/103 45/83/103
f 37/82/104 126/81/104 45/83/104 8/17/104
f 29/24/105 89/82/105 127/84/105 90/85/105
f 89/82/106 30/17/106 91/86/106 127/84/106
f 127/84/107 91/86/107 32/76/107 92/73/107
f 90/85/108 127/84/108 92/73/108 31/72/108
f 33/87/109 94/88/109 128/89/109 93/90/109
f 94/88/110 35/80/110 96/79/110 128/89/110
f 128/89/111 96/79/111 36/78/111 95/91/111
f 93/90/112 128/89/112 95/91/112 34/92/112
f 29/24/113 90/85/113 129/93/113 99/94/113
f 90/85/114 31/72/114 98/75/114 129/93/114
f 129/93/115 98/75/115 35/80/115 94/95/115
f 99/94/116 129/93/116 94/95/116 33/24/116
f 32/76/117 91/96/117 130/97/117 97/77/117
f 91/96/118 30/17/118 100/98/118 130/97/118
f 130/97/119 100/98/119 34/99/119 95/100/119
f 97/77/120 130/97/120 95/100/120 36/78/120
f 30/18/121 89/21/121 131/21/121 100/101/121
f 89/21/122 29/24/122 99/94/122 131/21/122
f 131/21/123 99/94/123 33/24/123 93/21/123
f 100/101/124 131/21/124 93/21/124 34/18/124
f 25/69/125 82/68/125 132/102/125 81/61/125
f 82/68/126 27/65/126 84/102/126 132/102/126
f 132/102/127 84/102/127 28/64/127 83/103/127
f 81/61/128 132/102/128 83/103/128 26/5/128
